<svg xmlns="http://www.w3.org/2000/svg" xmlns:xlink="http://www.w3.org/1999/xlink" width='24px' version="1.1" x="0px" y="0px"
	viewBox="0 0 64 64" style="enable-background:new 0 0 64 64;" xml:space="preserve">
	<style type="text/css">
		.st0 {
			display: none;
		}

		.st1 {
			display: inline;
		}

		.st2 {
			fill: none;
			stroke: #B3B3B3;
			stroke-width: 0.1;
			stroke-miterlimit: 10;
		}
	</style>
	<g class="st0">
		<g class="st1">
			<rect x="2" y="2" class="st2" width="60" height="60" />
			<line class="st2" x1="32" y1="2" x2="32" y2="62" />
			<line class="st2" x1="62" y1="32" x2="2" y2="32" />
			<line class="st2" x1="2" y1="2" x2="62" y2="62" />
			<rect x="10" y="10" class="st2" width="44" height="44" />
			<line class="st2" x1="62" y1="2" x2="2" y2="62" />
			<line class="st2" x1="2" y1="32" x2="32" y2="2" />
			<line class="st2" x1="32" y1="2" x2="62" y2="32" />
			<line class="st2" x1="62" y1="32" x2="32" y2="62" />
			<line class="st2" x1="32" y1="62" x2="2" y2="32" />
			<circle class="st2" cx="32" cy="32" r="21" />
		</g>
	</g>
	<path
		d="M58,30.3V2H6v28.3H2v25h9v-5h1.7l0.6,0.3l-0.4,0.7c-0.7,1.3-0.3,2.9,0.9,3.7c0.5,0.3,1.1,0.5,1.6,0.5c0.2,0,0.4,0,0.6-0.1  c0.4,0,0.7-0.2,1-0.4c0.1,0.9,0.5,1.7,1.2,2.2c0.5,0.3,1.1,0.5,1.6,0.5c0.2,0,0.4,0,0.6-0.1c0.1,0,0.2,0,0.2-0.1  c0.2,0.7,0.6,1.3,1.2,1.7c0.5,0.3,1.1,0.5,1.6,0.5c0.2,0,0.4,0,0.6-0.1c0.4,0,0.7-0.2,1-0.4c0.2,0.5,0.6,0.9,1,1.2  c0.4,0.3,1,0.5,1.5,0.5c0.4,0,0.8-0.1,1.2-0.3l0.9,0.3c0.3,0.1,0.6,0.1,0.9,0.1c0.7,0,1.5-0.3,2-0.9c0.4-0.4,0.7-1,0.8-1.6  c0.3,0.1,0.7,0.2,1,0.2c0.5,0,1.1-0.1,1.4-0.6c0.6-0.4,1.1-1.1,1.2-1.8c0.9,0.4,2,0.4,2.8-0.2c0.6-0.4,1.1-1.1,1.2-1.8  c0.9,0.4,1.9,0.3,2.8-0.2h0.1c0.7-0.4,1.1-1.2,1.3-1.9c0-0.1,0-0.2,0-0.2l6-1.7H53v5h9v-25H58z M8,4h48v26.3h-3v3h-1.6l-8.6-5.1  c-1-0.6-2.1-0.8-3.2-0.7l-6,0.8c-0.6,0-1.1,0.3-1.6,0.7c-0.5-0.4-1-0.7-1.6-0.8l-5.9-0.7c-1.1-0.1-2.2,0.1-3.2,0.7l-8.6,5.1H11v-3H8  V4z M9,53.3H4v-21h5V53.3z M15.6,53.5c-0.2,0.1-0.4,0-0.6-0.1c-0.4-0.3-0.5-0.7-0.3-1.1l2.2-3.9c0.1-0.2,0.3-0.3,0.5-0.4  c0.2-0.1,0.4,0,0.6,0.1c0.4,0.3,0.5,0.7,0.3,1.1l-2.2,3.9C16,53.3,15.8,53.4,15.6,53.5z M20,55.7c-0.2,0.1-0.4,0-0.6-0.1  c-0.4-0.3-0.5-0.7-0.3-1.1l2.2-3.9c0.1-0.2,0.3-0.3,0.5-0.4c0.2-0.1,0.4,0,0.6,0.1c0.4,0.3,0.5,0.7,0.3,1.1l-2.2,3.9  C20.4,55.5,20.2,55.6,20,55.7z M23.6,57.7c-0.2,0.1-0.4,0-0.6-0.1c-0.4-0.3-0.5-0.7-0.3-1.1l2.2-3.9c0.1-0.2,0.3-0.3,0.5-0.4  c0.2-0.1,0.4,0,0.6,0.1c0.4,0.3,0.5,0.7,0.3,1.1l-2.2,3.9C24,57.5,23.8,57.6,23.6,57.7z M27,58.8c-0.1-0.1-0.2-0.3-0.3-0.5  c-0.1-0.2,0-0.4,0.1-0.6l2-3c0.2-0.3,0.4-0.4,0.7-0.4c0.2,0,0.3,0,0.4,0.2c0.1,0.1,0.2,0.3,0.3,0.5c0.1,0.2,0,0.4-0.1,0.6l-2,3  C27.9,58.9,27.4,59,27,58.8z M31.1,58.8c-0.2,0.2-0.5,0.3-0.8,0.2l0.9-1.4C31.4,58,31.4,58.5,31.1,58.8z M42.9,52.4  c-0.4,0.3-0.9,0.2-1.2-0.1l-7.9-7.9l-1.5,1.4l6.6,7.4c0.2,0.3,0.3,0.5,0.2,0.7c-0.1,0.2-0.1,0.4-0.4,0.6c-0.3,0.3-0.8,0.2-1.1-0.1  l-7.9-6.9L28.3,49l6.5,6.4C35,55.6,35,55.9,35,56c0,0.2,0,0.4-0.3,0.6c-0.3,0.2-0.7,0.2-1-0.1L32.3,55c0-0.2,0-0.3,0-0.5  c-0.1-0.7-0.6-1.4-1.2-1.8c-0.9-0.5-1.9-0.6-2.8-0.1c-0.1-0.7-0.5-1.4-1.2-1.9c-0.6-0.4-1.4-0.6-2.2-0.4c-0.1,0-0.2,0-0.2,0.1  c-0.2-0.7-0.6-1.3-1.2-1.7c-0.6-0.4-1.4-0.5-2.2-0.4c-0.4,0-0.7,0.2-1,0.4c-0.1-0.9-0.5-1.7-1.2-2.2c-0.6-0.4-1.4-0.6-2.2-0.4  c-0.8,0.1-1.4,0.6-1.8,1.3l-0.8,1.5l-1-0.6H11v-13h2.3l9.1-5.4c0.6-0.3,1.2-0.5,1.9-0.4l5.9,0.7c0.1,0,0.2,0,0.3,0.1l-6.1,5.5  c-0.5,0.4-0.7,1-0.7,1.6c0,0.6,0.3,1.1,0.8,1.5l1.1,0.8c1.5,1.1,3.6,1.1,5-0.1l2.2-1.9l10.3,13.4c0.2,0.2,0.2,0.4,0.2,0.7  C43.2,52,43.1,52.3,42.9,52.4z M51.1,48.3l-6.5,1.8c0,0,0,0,0-0.1L34.4,36.5c0.1-0.1,0.3-0.1,0.4-0.1h1.3c0.2,0,0.4,0.1,0.6,0.2  c0.6,2.9,2.3,4.9,5,5.7l0.6-1.9c-2-0.6-3.2-2.1-3.7-4.5v-0.3l-0.2-0.2c-0.6-0.7-1.4-1.1-2.3-1.1h-1.3c-0.7,0-1.4,0.3-1.9,0.7l-3.6,3  c-0.7,0.6-1.8,0.7-2.5,0.1l-1.1-0.8l7.6-6.8c0.1-0.1,0.3-0.2,0.5-0.2l6-0.8c0.6-0.1,1.3,0.1,1.9,0.4l9.1,5.4H53v13H51.1z M60,53.3  h-5v-21h5V53.3z" />
	<path
		d="M14,21h-2c0,2.4,1.7,4.4,4,4.9V28h2v-2.1c2.3-0.5,4-2.5,4-4.9s-1.7-4.4-4-4.9v-5.9c1.2,0.4,2,1.5,2,2.8h2  c0-2.4-1.7-4.4-4-4.9V6h-2v2.1c-2.3,0.5-4,2.5-4,4.9s1.7,4.4,4,4.9v5.9C14.8,23.4,14,22.3,14,21z M18,18.2c1.2,0.4,2,1.5,2,2.8  s-0.8,2.4-2,2.8V18.2z M14,13c0-1.3,0.8-2.4,2-2.8v5.6C14.8,15.4,14,14.3,14,13z" />
</svg>